<?xml version="1.0" encoding="UTF-8"?>
<svg width="512" height="512" version="1.1" xmlns="http://www.w3.org/2000/svg">
 <path transform="translate(267.31 17.865)" d="m0 0c4.9065 0.0023054 9.813 0.0025606 14.719 0.0014841 1.0596-2.2985e-4 1.0596-2.2985e-4 2.1405-4.6434e-4 1.4363-3.1982e-4 2.8727-6.4404e-4 4.309-9.7259e-4 13.373-0.0028309 26.745 3.944e-4 40.118 0.0058004 11.401 0.0044668 22.803 0.0036884 34.204-9.1877e-4 13.336-0.0053868 26.672-0.007439 40.009-0.0043877 1.4299 3.1845e-4 2.8597 6.3282e-4 4.2896 9.4306e-4 0.70297 1.5428e-4 1.4059 3.0855e-4 2.1302 4.675e-4 4.8844 8.5286e-4 9.7688-5.7069e-4 14.653-0.002947 6.6086-0.0031455 13.217-8.1463e-4 19.826 0.0048943 2.3986 0.0013016 4.7972 9.7898e-4 7.1959-0.0012627 1.1161-9.454e-4 2.2321-0.0018908 3.382-0.0028648 1.4388-0.0020035 1.4388-0.0020035 2.9068-0.0040474 15.319 0.052328 30.456 0.61032 45.805 1.1396v76c-39.363 0.078257-78.653 0.061386-118-1 0.020947 0.68135 0.041895 1.3627 0.063477 2.0647 1.1943 46.467-4.6853 93.043-9.2451 139.22-2.7081 27.496-5.2402 54.932-5.1309 82.591 0.0022357 1.4352 0.0022357 1.4352 0.0045166 2.8995 0.040544 14.578 0.47243 28.878 3.308 43.226 0.1339 0.7106 0.2678 1.4212 0.40576 2.1533 3.1258 15.845 10.338 31.483 23.969 40.659 13.073 7.8724 28.49 9.0643 43.312 6.125 12.329-3.2846 22.96-9.8493 30.055-20.57 7.3003-12.748 9.9536-26.048 12.258-40.367h19c1.5376 40.362-14.608 83.609-41.637 113.53-16.087 17.343-38.618 28.306-62.363 29.469-28.026 0.97802-53.732-5.2259-75-24-20.906-19.903-28.914-48.54-29.953-76.581-0.16694-8.5996 0.32201-17.206 0.70303-25.794 0.091644-2.2024 0.18328-4.4048 0.2749-6.6072 0.69228-16.066 1.7023-32.1 3.0093-48.127 0.12775-1.6003 0.25441-3.2008 0.37988-4.8013 0.05974-0.76145 0.11948-1.5229 0.18103-2.3074 0.43714-6.065 0.49325-12.098 0.29935-18.175-0.091181-4.3336 0.67384-7.5495 2.1056-11.607 0.34925-2.4381 0.62811-4.887 0.85156-7.3398 0.095637-1.0278 0.095637-1.0278 0.19321-2.0763 0.13266-1.441 0.26189-2.8823 0.38785-4.3238 0.19158-2.1884 0.39419-4.3755 0.59863-6.5627 0.86892-9.3316 0.86892-9.3316 0.96875-18.697l-1-1c-0.1875-2.4375-0.1875-2.4375 0-5l2-2c0.50026-2.0713 0.50026-2.0713 0.72632-4.5183 0.1105-0.96541 0.221-1.9308 0.33485-2.9255 0.11259-1.0743 0.22517-2.1486 0.34117-3.2554 0.1252-1.1406 0.25039-2.2811 0.37938-3.4562 1.7195-16.012 3.1287-32.057 4.5526-48.097 0.30324-3.4022 0.61115-6.804 0.91897-10.206 1.5613-17.28 3.0561-34.555 4.1228-51.874 0.069161-1.0927 0.13832-2.1853 0.20958-3.3111 0.056673-0.94458 0.11335-1.8892 0.17174-2.8624 0.24257-2.4943 0.24257-2.4943 1.2426-6.4943h-108l-1 19c-0.2848 3.8745-0.58228 7.7398-0.92383 11.609-0.086322 1.0075-0.17264 2.015-0.26158 3.0531-0.27882 3.2446-0.56216 6.4887-0.84584 9.7328-0.19817 2.2902-0.39612 4.5803-0.59387 6.8705-0.41151 4.7576-0.82521 9.515-1.2406 14.272-0.53174 6.0912-1.0584 12.183-1.5836 18.275-0.40656 4.7107-0.81546 9.4213-1.2251 14.132-0.19522 2.2474-0.38977 4.4948-0.58365 6.7423-0.27036 3.1294-0.54381 6.2585-0.8181 9.3875-0.07899 0.92106-0.15798 1.8421-0.23936 2.7911-0.39077 4.4205-0.87261 8.7672-1.6845 13.135l2.75-0.25c3.25 0.25 3.25 0.25 5.625 1.875 2.1121 3.0869 2.237 4.7033 1.625 8.375-2.2006 3.1316-3.5016 3.885-7.25 4.75l-2.75 0.25c-1.0782 3.2347-1.36 6.0345-1.6609 9.4319-0.088375 0.979-0.088375 0.979-0.17853 1.9778-0.12825 1.4249-0.25488 2.85-0.38009 4.2752-0.20169 2.2934-0.4079 4.5864-0.61541 6.8794-0.29737 3.2865-0.59347 6.5732-0.88873 9.8599-16.007 177.74-16.007 177.74-51.901 212.26-13.047 10.822-29.478 14.679-46.101 13.558-14.715-1.5893-28.126-9.2562-37.497-20.687-7.9375-11.426-13.825-26.39-11.777-40.559 3.8773-19.752 16.728-34.948 28.492-50.668 29.198-39.105 62.087-90.948 67.031-140.59 0.44193-3.4666 1.3761-6.1746 2.665-9.397 1.7985-5.1887 2.6622-10.645 3.6865-16.029 0.12751-0.66733 0.25501-1.3347 0.38638-2.0222 4.5981-24.235 7.6473-48.639 9.5511-73.228 0.063436-0.81026 0.12687-1.6205 0.19223-2.4553 0.68117-8.8732 1.0913-17.658 1.0058-26.563-0.013762-3.99 0.19576-7.9412 0.4895-11.919 0.071543-1.0499 0.071543-1.0499 0.14453-2.1211 0.11426-1.6683 0.23418-3.3361 0.35547-5.0039-31.816-3.0534-68.185-2.5638-94.562 18.125-3.3108 2.8155-6.4809 5.685-9.4375 8.875l-1.6875 1.6719c-6.6068 6.8732-11.174 14.951-15.996 23.108-1.908 3.2173-3.8579 6.408-5.8164 9.5947-0.91266 1.4966-0.91266 1.4966-1.8438 3.0234-0.81984 1.2878-0.81984 1.2878-1.6562 2.6016-0.36738 0.78117-0.73477 1.5623-1.1133 2.3672-2.82 2.4405-5.2948 1.8759-8.9043 1.6289-0.88107-0.081211-1.7621-0.16242-2.6699-0.24609-1.339-0.098613-1.339-0.098613-2.7051-0.19922-2.2046-0.16505-4.4059-0.34929-6.6074-0.55078 0.61488-4.7479 1.9716-8.9499 3.7383-13.371 0.27661-0.70631 0.55322-1.4126 0.83821-2.1403 0.9064-2.3109 1.821-4.6186 2.736-6.9261 0.96133-2.4391 1.9211-4.8788 2.8806-7.3186 0.65214-1.6579 1.305-3.3155 1.9585-4.9729 2.0494-5.2055 4.0557-10.425 6.0242-15.662 23.788-63.145 23.788-63.145 56.643-78.457 29.925-13.254 66.409-14.584 98.68-16.039 1.6874-0.076377 3.3747-0.1553 5.062-0.23658 26.568-1.2361 53.162-1.0248 79.752-1.0119z" fill="#FEB2B2"/>
 <path transform="translate(333.94 382.25)" d="m0 0c0.69674-0.061875 1.3935-0.12375 2.1113-0.1875 9.2064-0.19924 15.794 6.9184 22.092 12.863 3.1801 3.0705 6.2727 6.2235 9.3596 9.3872 1.067 1.0821 2.1347 2.1635 3.2031 3.2441 1.9479 1.972 3.8906 3.9487 5.8301 5.929 0.81404 0.82975 1.6281 1.6595 2.4668 2.5144 0.7284 0.74492 1.4568 1.4898 2.2073 2.2573 4.9497 4.8115 11.207 4.6078 17.793 4.7427 1.9827-0.22058 3.9625-0.469 5.9375-0.75 4.0681-0.45921 4.7084-0.48154 8.3125 1.875 1.75 2.875 1.75 2.875 1.5625 5.5l-0.8125 2.375v3c8.8945 2.8798 8.8945 2.8798 18 4.9375 4.2028 0.88399 6.4909 2.4661 9 6.0625 0.074756 3.1398-0.51322 4.4118-2.5 6.8125-6.6592 3.1631-14.648 0.78969-21.5-0.8125l-0.125 2.1875c-1.2204 3.9227-3.4867 5.729-6.875 7.8125-3.4061 1.612-6.8932 2.9133-10.438 4.1875-0.91588 0.34225-1.8318 0.68449-2.7754 1.0371-20.634 7.6284-20.634 7.6284-30.451 3.7129-5.2358-3.222-8.8981-7.2765-11.336-12.938-0.5625-2.75-0.5625-2.75 0-5 1.96-2.686 3.206-3.7964 6.4375-4.625 3.8908 0.94898 5.2265 3.4898 7.5625 6.625 1.6933 2.1178 2.414 2.9218 5.1367 3.2852 11.328-0.98878 21.536-5.8172 31.863-10.285l-3.1875-1.6875c-2.6035-1.3783-4.1022-2.6286-6.1289-4.8398-3.1504-2.9028-5.2829-3.4529-9.4336-4.3477-12.314-3.2453-21.284-12.676-28.25-23.125-2.781-1.138-2.781-1.138-6-1-3.0983 1.8211-3.0983 1.8211-5.875 4.4375-1.4502 1.2665-1.4502 1.2665-2.9297 2.5586-0.72445 0.66129-1.4489 1.3226-2.1953 2.0039 0.92941 0.025781 1.8588 0.051562 2.8164 0.078125 12.932 0.59333 12.932 0.59333 18.184 4.9219 0.73863 0.58137 1.4773 1.1627 2.2383 1.7617 4.8471 4.038 9.3995 8.2648 11.762 14.238 0.070173 3.7192-0.26628 5.1877-2.75 7.9375-2.25 1.0625-2.25 1.0625-4.625 1.1875-4.8945-2.0976-7.6124-6.7848-10.75-10.938-2.3564-2.7492-4.3481-4.0229-7.9814-4.4146-0.73315 0.010474-1.4663 0.020947-2.2217 0.031738-0.79922 0.0064453-1.5984 0.012891-2.4219 0.019531-0.825 0.016758-1.65 0.033516-2.5 0.050781-0.84047 0.0090234-1.6809 0.018047-2.5469 0.027344-2.0678 0.023498-4.1355 0.059367-6.2031 0.097656v2l-5 1 2.0625 2.6875c1.9375 3.3125 1.9375 3.3125 1.9375 6-1.2678 2.9318-2.0989 3.9383-5 5.3125-5.294-0.096255-8.2144-1.3257-12-5-1.9371-3.8742-1.6285-7.79-1-12 4.8353-14.059 15.223-24.213 26.453-33.512 0.51047-0.49113 1.0209-0.98227 1.5469-1.4883v-2l-2.1875-0.375c-2.8125-0.625-2.8125-0.625-5.0625-1.5625-2.5185-0.97305-4.7329-1.4544-7.375-1.9375-2.932-0.63039-4.1784-0.95729-6.5-2.9375-1.1485-2.8711-0.91382-4.2936 0.125-7.1875 2.6202-3.9738 6.5954-3.6582 10.938-3.75z" fill="#F38B8B"/>
 <path transform="translate(349.01 217.35)" d="m0 0c4.2262 1.3839 7.2188 4.2641 9.9922 7.6523 1.3125 3.125 1.3125 3.125 1 6-2.125 2.9375-2.125 2.9375-5 5-2.9839-0.074598-4.7407-0.86199-7.3633-2.2578-2.6617-1.0726-2.6617-1.0726-5.0234 0.48828-0.75926 0.64582-1.5185 1.2916-2.3008 1.957-0.76699 0.63293-1.534 1.2659-2.3242 1.918-2.6684 2.5426-3.8899 4.2922-4.4883 7.957 0.51239 4.035 1.257 5.3984 3.4375 8.6875 3.5674 5.4561 3.8969 9.7925 4.0625 16.25l10-2c-0.061875-0.9075-0.12375-1.815-0.1875-2.75 0.1875-3.25 0.1875-3.25 1.25-5.625 1.9375-1.625 1.9375-1.625 5.3125-2.25 3.625 0.625 3.625 0.625 6.625 3.1875 2 3.4375 2 3.4375 2.0625 6.9375-1.8396 6.06-4.87 9.9457-10.062 13.5-1.8973 0.5438-3.798 1.0831-5.7231 1.5181-6.7212 1.5503-10.93 3.138-14.902 9.1069-1.1719 2.0995-2.2976 4.2255-3.375 6.375-1.1449 2.0422-2.2907 4.0839-3.4375 6.125-1.213 2.2805-2.4074 4.5648-3.5625 6.875 0.7247 1.6969 1.5312 3.3591 2.375 5 2.4683 5.2615 4.169 10.124 3.625 16-1.5625 2.6875-1.5625 2.6875-4 4-3.6788 0.076643-5.3613-0.43641-8.125-2.875-2.2348-3.7246-3.5818-7.4884-4.9453-11.602-0.88881-2.7144-0.88881-2.7144-2.9297-5.5234-1.3901-4.4793-2.0813-7.7847-1.625-12.438 0.16871-4.4172-1.4413-6.2883-4.375-9.5-1.1138-1.0963-1.1138-1.0963-2.25-2.2148-1.75-1.8477-1.75-1.8477-1.75-3.8477h-2c-0.15334-3.2202-0.10835-5.6876 0.95459-8.7522 1.1523-3.58 1.5559-6.8441 1.897-10.588 0.095637-1.0278 0.095637-1.0278 0.19321-2.0763 0.13266-1.441 0.26189-2.8823 0.38785-4.3238 0.19158-2.1884 0.39419-4.3755 0.59863-6.5627 0.86892-9.3316 0.86892-9.3316 0.96875-18.697l-1-1c-0.5-2.125-0.5-2.125 0-5 3.5541-4.4307 7.586-8.5901 13.312-9.5625 4.6891 0.71529 5.8479 2.3819 8.6211 6.0312 0.35191 0.50531 0.70383 1.0106 1.0664 1.5312 0.47309-0.36352 0.94617-0.72703 1.4336-1.1016 2.1743-1.653 4.3696-3.2755 6.5664-4.8984 0.74379-0.57234 1.4876-1.1447 2.2539-1.7344 4.0813-2.9811 7.5528-5.3462 12.754-4.918z" fill="#F28A8A"/>
 <path transform="translate(384.81 60.188)" d="m0 0c1.139 8.8623e-4 2.2781 0.0017725 3.4517 0.0026856 8.057 0.25439 8.057 0.25439 11.043 2.6978 1.6926 2.1121 1.6926 2.1121 2.2551 4.6121-0.5625 2.5-0.5625 2.5-2.582 4.6172-3.7505 2.3692-6.9287 2.4691-11.23 2.5078-1.5223 0.052164-3.0445 0.10941-4.5664 0.17188-0.72461 0.029004-1.4492 0.058008-2.1958 0.087891-5.9117 0.34271-12.19 1.5737-16.988 5.1152-1.5092 2.9001-2.2747 5.8243-3 9-0.20109 0.67676-0.40219 1.3535-0.60938 2.0508-0.77629 3.3394-0.83689 5.1642 0.89062 8.2031 1.099 1.5319 2.2096 3.0555 3.332 4.5703 2.0385 3.1984 2.1207 5.5059 1.3867 9.1758-1.625 2-1.625 2-4 3-2.875 0.125-2.875 0.125-6-1-2.2917-2.1252-4.144-4.4925-6-7l-1.875-2.4375c-0.55688-0.77344-0.55688-0.77344-1.125-1.5625l-1.875 1.5c-2.125 1.5-2.125 1.5-4.125 1.5l-1 6c0.69867 0.076055 1.3973 0.15211 2.1172 0.23047 3.613 0.96446 6.1213 2.8039 9.0078 5.082 0.56187 0.44078 1.1237 0.88156 1.7026 1.3357 9.4588 7.6259 17.628 15.38 19.559 27.85 0.26768 2.5649 0.42795 5.1141 0.55078 7.6897 0.067676 0.86303 0.13535 1.7261 0.20508 2.6152 0.29844 5.653-0.34177 8.713-4.1426 13.197-2 2-2 2-4.375 2.4375-2.625-0.4375-2.625-0.4375-4.7734-2.2578-2.7648-4.748-2.2807-9.1069-2.1016-14.492 0.018047-1.0267 0.036094-2.0535 0.054688-3.1113 0.047002-2.5264 0.11269-5.0508 0.19531-7.5762-2.831 2.7974-5.6066 5.5944-8.1875 8.625-0.48855 0.56977-0.97711 1.1395-1.4805 1.7266-2.539 3.1421-3.5485 5.114-3.7695 9.0859-0.27277 2.7456-0.56826 4.5756-1.6875 7.125-1.875 1.4375-1.875 1.4375-5.375 1.9375-3.5-0.5-3.5-0.5-5.1797-2.1484-2.6774-4.7686-2.1732-10.089-1.3203-15.352 2.8528-5.9294 7.2579-10.507 12-15 3.8543-3.869 3.8543-3.869 5-9-2.1194-1.707-2.1194-1.707-4.8125-3.1875-0.89332-0.5298-1.7866-1.0596-2.707-1.6055-2.4703-1.4258-2.4703-1.4258-5.4805-1.207l1 7 0.875 3.625c0.125 3.375 0.125 3.375-1.9375 6.375-2.9375 2-2.9375 2-6.0625 2.0625-4.557-1.6841-5.3457-4.0628-7.5625-8.25-1.5693-4.4008-1.6383-8.7519-1.6875-13.375-0.013777-0.72018-0.027554-1.4404-0.041748-2.1824 0.080188-9.3457 4.6975-16.143 10.927-22.828 3.7784-3.621 8.2024-6.4472 12.548-9.3335 3.067-2.1832 4.6365-3.6661 5.4336-7.3984 0.25434-1.7077 0.50437-3.416 0.75-5.125 2.0548-6.9695 8.0783-10.273 14.053-13.587 7.0316-3.4124 13.782-3.8063 21.517-3.7961z" fill="#F28A8A"/>
 <path transform="translate(168.69 29.835)" d="m0 0c2.4331 0.17299 4.861 0.27309 7.2988 0.35596 1.2257 0.046769 1.2257 0.046769 2.4761 0.094482 1.5794 0.05829 3.1592 0.10702 4.7393 0.14502 5.2851 0.22562 5.2851 0.22562 7.7808 1.8894 1.7714 2.9185 1.4317 5.382 1.0195 8.6797-2.4842 2.817-4.0048 3.0004-7.7837 3.293-1.5229-0.020724-3.0456-0.056833-4.5679-0.10547-1.2211-0.01704-1.2211-0.01704-2.4669-0.034424-3.4711-0.048801-6.9411-0.13264-10.412-0.2146-13.672-0.46724-13.672-0.46724-26.77 3.0615 2.5183 2.6466 4.7687 4.0083 8.125 5.5 0.88945 0.40219 1.7789 0.80438 2.6953 1.2188 1.0493 0.42281 2.0986 0.84562 3.1797 1.2812 0.64131 0.26692 1.2826 0.53383 1.9434 0.80884 7.4182 2.8188 14.68 2.6259 22.525 2.6306 7.8078 0.14223 7.8078 0.14223 11.727 2.4082 1.8047 2.1523 1.8047 2.1523 2.4297 5.1523-0.625 3-0.625 3-2.4375 5.1602-4.829 2.7873-9.3372 2.3812-14.812 2.2773-1.03 0.0070898-2.0599 0.01418-3.1211 0.021484-8.0672-0.065958-15.386-1.4094-22.838-4.5471-3.7366-1.4106-6.7519-1.3294-10.416 0.088135-2.5186 2.0068-4.7714 4.2027-7.082 6.4453-3.3518 2.9345-6.8387 5.1775-10.668 7.4297-0.62592 0.36867-1.2518 0.73734-1.8967 1.1172-11.831 6.8408-11.831 6.8408-16.353 6.0078-2.375-1.625-2.375-1.625-4-4-0.0625-3-0.0625-3 1-6 4.6329-4.269 10.222-7.1205 15.674-10.201 7.7768-4.2271 7.7768-4.2271 13.326-10.799-7.3741-0.47575-12.342 0.90877-19 4-1.1344 0.45375-2.2687 0.9075-3.4375 1.375-3.2426 2.0563-4.0193 4.1711-5.5625 7.625-3 2-3 2-6 1.9375-3-0.9375-3-0.9375-4.9375-3.0625-1.4485-3.9195-1.3057-5.8691-0.0625-9.875 5.5419-8.5115 17.593-13.351 27-16 2.5547-0.19531 2.5547-0.19531 4.875-0.125 0.78117 0.018047 1.5623 0.036094 2.3672 0.054688 0.58008 0.023203 1.1602 0.046406 1.7578 0.070312l0.8125-3.3125c1.1394-3.5383 1.4548-4.4841 4.1875-6.6875 12.249-5.9039 24.44-6.251 37.686-5.1646z" fill="#F38C8C"/>
 <path transform="translate(115,365)" d="m0 0c2 1.625 2 1.625 3 4 0.125 2.875 0.125 2.875-1 6-2.1505 2.2583-4.4918 4.1532-7 6 1.1354 3.3031 2.6255 5.9975 4.5625 8.875 2.3598 3.7433 3.5198 6.5965 3.4375 11.125-2.559 6.2306-6.8031 9.8501-12 14 4.6365 3.4001 9.4444 4.1563 15 5l3.125 0.5625c7.6059-1.4881 13.025-9.8669 17.699-15.523 2.4731-2.3177 3.8065-2.9298 7.1758-3.0391 2.875 2.125 2.875 2.125 5 5 0.35151 4.3352-2.4927 7.4912-5.0664 10.75-14.15 16.466-14.15 16.466-23.621 17.75-8.3954-0.6067-16.429-3.045-24.188-6.1875-6.3809-2.6282-6.3809-2.6282-13.125-2.3125-8.2411 4.1615-12.995 10.446-18 18-1 1-1 1-3.8125 1.3125-3.1875-0.3125-3.1875-0.3125-5.625-1.875-1.5625-2.4375-1.5625-2.4375-1.4141-5.7422 2.0746-9.0028 10.321-15.842 17.852-20.695 0.72832-0.48469 1.4566-0.96938 2.207-1.4688 5.444-3.5312 5.444-3.5312 7.793-3.5312l0.1875-1.75c2.2287-6.1718 10.281-8.629 15.812-11.25-1.4408-3.9932-3.4027-7.3065-5.6875-10.875-2.1077-3.6176-3.2691-5.747-3.75-9.9375 2.1084-4.6752 5.4375-7.1094 9.4375-10.188l2.5625-2.4375c3.3508-2.1479 5.5407-2.1398 9.4375-1.5625z" fill="#F38B8B"/>
 <path transform="translate(410.38 25.5)" d="m0 0c4.3162 0.59534 5.3599 1.6802 8.625 4.5 1.8289 1.1455 3.6862 2.2464 5.5625 3.3125 0.92941 0.53238 1.8588 1.0648 2.8164 1.6133 2.4809 1.2542 2.4809 1.2542 4.75 0.87109 2.1884-0.87843 2.1884-0.87843 5.2461-2.8594 9.6031-4.8727 22.827-2.0983 32.625 1.0625 2.9472 1.4454 3.9473 2.3253 6 5 0.1408 3.5201-0.35189 5.1629-2.5 7.9375-4.4846 1.906-9.2008 0.59873-13.828-0.48047-3.3611-0.57493-6.5765-0.55138-9.9844-0.51953-1.2543 0.0090234-2.5085 0.018047-3.8008 0.027344-0.95262 0.011602-1.9052 0.023203-2.8867 0.035156 0.58008 0.74443 0.58008 0.74443 1.1719 1.5039 5.639 7.3558 9.0604 12.724 10.336 22.043 0.37909 2.6953 0.37909 2.6953 2.4922 5.4531 4.562-0.3 8.3355-0.70855 12.562-2.5625 4.3195-1.8063 6.7957-1.979 11.438-1.4375 2.0625 1.625 2.0625 1.625 3 4 0.1875 2.9375 0.1875 2.9375-1 6-2.4356 2.1462-5.1029 3.5617-8 5l-3.5625 1.8125c-6.4092 2.2044-15.474 3.0326-21.703 0.13281-2.0979-1.7211-3.522-3.5205-4.7344-5.9453-3.6215 1.1317-6.0555 2.8033-8.9375 5.1875-2.856 2.204-3.6575 2.7972-7.375 2.9375-3.1244-1.3079-4.271-2.042-5.6875-5.125 0-3 0-3 1-6 2.1875-2.0625 2.1875-2.0625 5-4 5.4893-4.2023 5.4893-4.2023 9-10-3.0904-10.958-18.434-18.774-27.582-24.387-3.4154-2.2788-5.1082-3.5734-6.293-7.5508-0.125-3.0625-0.125-3.0625 0.875-5.4375 2-1.625 2-1.625 5.375-2.125z" fill="#F28A8A"/>
 <path transform="translate(157.38 287.69)" d="m0 0c3.625 0.3125 3.625 0.3125 5.625 1.9375 1.4045 3.3356 0.97408 4.8683 0 8.375-0.47953 0.92619-0.47953 0.92619-0.96875 1.8711-3.5905 7.1939-3.2846 13.87-2.7952 21.729 0.28158 6.7375 0.28158 6.7375-2.4822 10.275-0.90879 0.70125-1.8176 1.4025-2.7539 2.125-0.70383 0.71543-1.4077 1.4309-2.1328 2.168-0.65742 0.66645-1.3148 1.3329-1.9922 2.0195-0.66258 0.67418-1.3252 1.3484-2.0078 2.043-1.8672 1.7695-1.8672 1.7695-4.8672 3.7695 0.49658 5.661 1.5451 9.8767 4 15 0.4357-0.38672 0.87141-0.77344 1.3203-1.1719 3.7337-3.265 7.5179-6.1139 11.68-8.8281l2.5-2.3125c2.5-1.6875 2.5-1.6875 5.6875-1.5625 2.8125 0.875 2.8125 0.875 4.8125 2.875 0.74308 3.0342 0.95562 4.1222 0 7-2.9108 3.5243-6.3981 6.2085-10 9-0.85078 0.68159-0.85078 0.68159-1.7188 1.377-1.7833 1.4215-3.5889 2.8079-5.4062 4.1855-0.5609 0.44191-1.1218 0.88381-1.6997 1.3391-4.6432 3.3857-7.6495 3.6596-13.175 3.0984-7.08-3.7482-8.7224-10.695-11-18-6.1867-20.714-6.1867-20.714-2.4375-28.062 2.4375-1.9375 2.4375-1.9375 5.9375-2.375 3.0774 0.38467 4.9257 0.78994 7.5 2.4375 1.6715-0.99641 1.6715-0.99641 3-3 0.08857-2.6866 0.035554-5.2039-0.125-7.875-0.32782-10.532 2.6054-19.743 9.125-28.125 1-1 1-1 4.375-1.3125z" fill="#F38C8C"/>
 <path transform="translate(290.44 29.625)" d="m0 0c3.5625 0.375 3.5625 0.375 5.2539 2.1055 2.2896 3.971 2.0218 7.8283 1.3086 12.27-1.7093 4.1847-3.7989 7.7989-7 11 0.083707 3.8139 0.5405 5.5151 3.1875 8.3086 1.3922 1.0538 1.3922 1.0538 2.8125 2.1289 0.98742 0.76699 1.9748 1.534 2.9922 2.3242 1.8933 1.4089 3.7934 2.8087 5.7031 4.1953 0.8018 0.59168 1.6036 1.1834 2.4297 1.793 1.0867 0.7657 1.0867 0.7657 2.1953 1.5469 2.1597 2.1898 2.5256 3.6553 2.6797 6.7031-2.2649 2.9976-3.7802 4.7255-7.5 5.5625-3.2943-0.74122-4.8968-2.4169-7.5-4.5625-1.9555-1.4413-3.914-2.8787-5.875-4.3125-4.7859-3.5687-9.1008-7.2808-13.125-11.688-1.647 0.47526-3.2925 0.95532-4.9375 1.4375-0.91652 0.26684-1.833 0.53367-2.7773 0.80859-2.2254 0.54417-2.2254 0.54417-3.2852 1.7539-9.7594 1.6096-20.167-1.9699-29-6-2-2-2-2-2.3125-5.4375 0.3125-3.5625 0.3125-3.5625 1.3125-5.5 3.2494-1.7262 6.4538-1.5609 10-1.0625 1.3078 0.45604 2.6007 0.95721 3.875 1.5 5.1887 2.1305 10.804 2.7552 16.141 0.73828 3.6192-1.9905 6.8731-4.5364 9.9844-7.2383l2.625-2.0625c2.961-3.6622 3.6968-6.9671 4.6992-11.512 1.0886-3.9077 2.0899-4.3619 6.1133-4.8008z" fill="#F28A8A"/>
 <path transform="translate(202.25 221.69)" d="m0 0c2.75 0.3125 2.75 0.3125 5.125 1.9375 2.1121 3.0869 2.237 4.7033 1.625 8.375-2.1199 2.7185-3.3913 3.857-6.7773 4.6523-1.0429 0.094102-2.0857 0.1882-3.1602 0.28516-8.9043 1.1243-17.588 3.9886-25.062 9.0625l-2 3c0.72188 0.39188 1.4438 0.78375 2.1875 1.1875 3.05 1.9655 5.3208 4.1861 7.8125 6.8125l2 2v4h3c1.0481 3.7556 1.3035 5.4056-0.5 8.9375-2.5 2.0625-2.5 2.0625-5.8125 2.375-3.8019-1.3532-4.2347-1.7019-6.5-4.6875-4.2728-5.4823-10.105-8.4703-16.054-11.855-0.77368-0.44618-1.5474-0.89235-2.3445-1.3521-1.0565-0.59132-1.0565-0.59132-2.1343-1.1946-1.6548-1.2234-1.6548-1.2234-2.6548-4.2234l-1.875-0.9375c-2.6585-1.3292-3.6821-2.4654-5.125-5.0625-0.38421-3.1377-0.51108-5.0981 1.0625-7.875 3.0444-1.7677 5.5006-1.4932 8.9375-1.125 1.625 1.5 1.625 1.5 3 3 2.3234 0.83705 2.3234 0.83705 5 0 1.5226-1.4215 1.5226-1.4215 3.0625-3.1875 4.4884-4.8397 9.8566-6.5681 15.938-8.8125 1.7508-0.74818 3.5008-1.498 5.25-2.25 5.3785-2.1376 10.263-2.5109 16-3.0625z" fill="#F28A8A"/>
 <path transform="translate(201,107)" d="m0 0c1.875 1.75 1.875 1.75 3 4-0.13355 3.6482-0.77562 4.7888-3.4688 7.3242-1.0003 0.77988-2.0006 1.5598-3.0312 2.3633-3.9383 3.273-3.9383 3.273-6.3086 7.7266-0.087375 1.6257-0.12352 3.2548-0.11328 4.8828-0.24209 8.3765-3.896 18.843-10.078 24.703-3.6875 0.8125-3.6875 0.8125-7 0-2-1.5625-2-1.5625-3-4 0.14686-3.8917 0.84089-6.6619 2.5-10.188 2.2685-5.0021 2.8582-10.362 2.5-15.812-1.746-3.0809-1.746-3.0809-5-5-0.76055-0.52336-1.5211-1.0467-2.3047-1.5859-1.5877-1.0805-3.1888-2.1417-4.8047-3.1797-1.8906-1.2344-1.8906-1.2344-2.8906-2.2344-0.375-2.875-0.375-2.875 0-6 2.8475-2.6749 4.4756-3.0097 8.375-2.9375 4.171 1.0787 6.9988 2.6434 10.625 4.9375v2c5.7463-1.2642 8.6151-3.1134 13-7 3.3589-1.1196 4.6771-1.0799 8 0z" fill="#F28A8A"/>
 <path transform="translate(315,238)" d="m0 0c1.9844 1.2422 1.9844 1.2422 4 3 0.32812 1.8828 0.32812 1.8828 0.25 4.125 0.27172 5.4982 2.3487 9.2499 4.875 14 4.3661 8.5392 5.3051 15.46 2.875 24.875-1.6234 3.1451-3.4108 5.5929-6 8-4.5228-2.0584-6.8645-4.9994-9.3125-9.3125-1.7127-2.0742-1.7127-2.0742-5.25-2-3.2941 0.088968-3.2941 0.088968-5.4375 1.3125 1.975-28.933 1.975-28.933 4-43l3.3125 0.625c3.7713 0.77847 3.7713 0.77847 6.6875-1.625z" fill="#FEB2B2"/>
 <path transform="translate(199,222)" d="m0 0c3.5368-0.32153 5.3962-0.41312 8.375 1.625 2.1121 3.0869 2.237 4.7033 1.625 8.375-2.3082 3.4162-3.6683 3.9337-7.75 4.75l-3.25 0.25c-0.10252-5.1258-0.035902-9.95 1-15z" fill="#EA6363"/>
 <path transform="translate(327,302)" d="m0 0h2c-1.0907 3.7755-1.9083 6.4704-5 9l-1-2c0.9375-2.125 0.9375-2.125 2-4h2v-3z" fill="#F69898"/>
</svg>
